{
	"asset":{
		"generator":"Khronos glTF Blender I/O v4.0.44",
		"version":"2.0"
	},
	"extensionsUsed":[
		"KHR_materials_specular",
		"KHR_materials_ior"
	],
	"scene":0,
	"scenes":[
		{
			"name":"Scene",
			"nodes":[
				0
			]
		}
	],
	"nodes":[
		{
			"mesh":0,
			"name":"nodes[0]",
			"rotation":[
				0.7071068286895752,
				0,
				0,
				0.7071068286895752
			]
		}
	],
	"materials":[
		{
			"doubleSided":true,
			"extensions":{
				"KHR_materials_specular":{
					"specularFactor":0
				},
				"KHR_materials_ior":{
					"ior":1.4500000476837158
				}
			},
			"name":"material_0",
			"normalTexture":{
				"index":0
			},
			"pbrMetallicRoughness":{
				"baseColorTexture":{
					"index":1
				},
				"metallicFactor":0,
				"metallicRoughnessTexture":{
					"index":2
				}
			}
		},
		{
			"doubleSided":true,
			"name":"Material.001",
			"pbrMetallicRoughness":{
				"baseColorFactor":[
					0,
					0,
					0,
					1
				],
				"metallicFactor":0,
				"roughnessFactor":0.8073394298553467
			}
		}
	],
	"meshes":[
		{
			"name":"meshes[0]",
			"primitives":[
				{
					"attributes":{
						"POSITION":0,
						"NORMAL":1,
						"TEXCOORD_0":2
					},
					"indices":3,
					"material":0
				},
				{
					"attributes":{
						"POSITION":4,
						"NORMAL":5,
						"TEXCOORD_0":6
					},
					"indices":7,
					"material":1
				}
			]
		}
	],
	"textures":[
		{
			"sampler":0,
			"source":0
		},
		{
			"sampler":0,
			"source":1
		},
		{
			"sampler":0,
			"source":2
		}
	],
	"images":[
		{
			"mimeType":"image/jpeg",
			"name":"normal.jpg",
			"uri":"Textures/normal_jpg.jpg"
		},
		{
			"mimeType":"image/jpeg",
			"name":"base_color.jpg",
			"uri":"Textures/base_color_jpg.jpg"
		},
		{
			"mimeType":"image/png",
			"name":"roughness",
			"uri":"Textures/roughness.png"
		}
	],
	"accessors":[
		{
			"bufferView":0,
			"componentType":5126,
			"count":66930,
			"max":[
				0.28075700998306274,
				0.290995329618454,
				-0.0019060969352722168
			],
			"min":[
				-0.276835173368454,
				-0.2955406904220581,
				-1.180867314338684
			],
			"type":"VEC3"
		},
		{
			"bufferView":1,
			"componentType":5126,
			"count":66930,
			"type":"VEC3"
		},
		{
			"bufferView":2,
			"componentType":5126,
			"count":66930,
			"type":"VEC2"
		},
		{
			"bufferView":3,
			"componentType":5125,
			"count":299778,
			"type":"SCALAR"
		},
		{
			"bufferView":4,
			"componentType":5126,
			"count":120,
			"max":[
				0.2596033811569214,
				0.2788999676704407,
				0
			],
			"min":[
				-0.2678421437740326,
				-0.2734435796737671,
				-0.01897650957107544
			],
			"type":"VEC3"
		},
		{
			"bufferView":5,
			"componentType":5126,
			"count":120,
			"type":"VEC3"
		},
		{
			"bufferView":6,
			"componentType":5126,
			"count":120,
			"type":"VEC2"
		},
		{
			"bufferView":7,
			"componentType":5123,
			"count":270,
			"type":"SCALAR"
		}
	],
	"bufferViews":[
		{
			"buffer":0,
			"byteLength":803160,
			"byteOffset":0,
			"target":34962
		},
		{
			"buffer":0,
			"byteLength":803160,
			"byteOffset":803160,
			"target":34962
		},
		{
			"buffer":0,
			"byteLength":535440,
			"byteOffset":1606320,
			"target":34962
		},
		{
			"buffer":0,
			"byteLength":1199112,
			"byteOffset":2141760,
			"target":34963
		},
		{
			"buffer":0,
			"byteLength":1440,
			"byteOffset":3340872,
			"target":34962
		},
		{
			"buffer":0,
			"byteLength":1440,
			"byteOffset":3342312,
			"target":34962
		},
		{
			"buffer":0,
			"byteLength":960,
			"byteOffset":3343752,
			"target":34962
		},
		{
			"buffer":0,
			"byteLength":540,
			"byteOffset":3344712,
			"target":34963
		}
	],
	"samplers":[
		{
			"magFilter":9729,
			"minFilter":9987
		}
	],
	"buffers":[
		{
			"byteLength":3345252,
			"uri":"Birds.bin"
		}
	]
}
