{
	"asset":{
		"generator":"Khronos glTF Blender I/O v4.0.44",
		"version":"2.0"
	},
	"scene":0,
	"scenes":[
		{
			"name":"Scene",
			"nodes":[
				0
			]
		}
	],
	"nodes":[
		{
			"mesh":0,
			"name":"meshes[0]",
			"rotation":[
				0.70710688829422,
				0,
				0,
				0.7071066498756409
			]
		}
	],
	"materials":[
		{
			"doubleSided":true,
			"name":"Material.001",
			"normalTexture":{
				"index":0
			},
			"pbrMetallicRoughness":{
				"baseColorTexture":{
					"index":1
				},
				"metallicFactor":0,
				"metallicRoughnessTexture":{
					"index":2
				}
			}
		},
		{
			"doubleSided":true,
			"name":"Material.002",
			"pbrMetallicRoughness":{
				"baseColorFactor":[
					0.2788977324962616,
					0.16512995958328247,
					0.08865369856357574,
					1
				],
				"metallicFactor":0,
				"roughnessFactor":0.5
			}
		}
	],
	"meshes":[
		{
			"name":"Mesh",
			"primitives":[
				{
					"attributes":{
						"POSITION":0,
						"NORMAL":1,
						"TEXCOORD_0":2
					},
					"indices":3,
					"material":0
				},
				{
					"attributes":{
						"POSITION":4,
						"NORMAL":5,
						"TEXCOORD_0":6
					},
					"indices":7,
					"material":1
				}
			]
		}
	],
	"textures":[
		{
			"sampler":0,
			"source":0
		},
		{
			"sampler":0,
			"source":1
		},
		{
			"sampler":0,
			"source":2
		}
	],
	"images":[
		{
			"mimeType":"image/jpeg",
			"name":"normal",
			"uri":"normal.jpg"
		},
		{
			"mimeType":"image/jpeg",
			"name":"base_color",
			"uri":"base_color.jpg"
		},
		{
			"mimeType":"image/png",
			"name":"roughness",
			"uri":"roughness.png"
		}
	],
	"accessors":[
		{
			"bufferView":0,
			"componentType":5126,
			"count":55815,
			"max":[
				0.06855814158916473,
				0.08081212639808655,
				-0.0024311989545822144
			],
			"min":[
				-0.06930623948574066,
				-0.08261090517044067,
				-0.4143281579017639
			],
			"type":"VEC3"
		},
		{
			"bufferView":1,
			"componentType":5126,
			"count":55815,
			"type":"VEC3"
		},
		{
			"bufferView":2,
			"componentType":5126,
			"count":55815,
			"type":"VEC2"
		},
		{
			"bufferView":3,
			"componentType":5123,
			"count":298428,
			"type":"SCALAR"
		},
		{
			"bufferView":4,
			"componentType":5126,
			"count":433,
			"max":[
				0.0668550580739975,
				0.08030961453914642,
				-2.7755575615628914e-17
			],
			"min":[
				-0.06693282723426819,
				-0.07958610355854034,
				-0.0111922025680542
			],
			"type":"VEC3"
		},
		{
			"bufferView":5,
			"componentType":5126,
			"count":433,
			"type":"VEC3"
		},
		{
			"bufferView":6,
			"componentType":5126,
			"count":433,
			"type":"VEC2"
		},
		{
			"bufferView":7,
			"componentType":5123,
			"count":1608,
			"type":"SCALAR"
		}
	],
	"bufferViews":[
		{
			"buffer":0,
			"byteLength":669780,
			"byteOffset":0,
			"target":34962
		},
		{
			"buffer":0,
			"byteLength":669780,
			"byteOffset":669780,
			"target":34962
		},
		{
			"buffer":0,
			"byteLength":446520,
			"byteOffset":1339560,
			"target":34962
		},
		{
			"buffer":0,
			"byteLength":596856,
			"byteOffset":1786080,
			"target":34963
		},
		{
			"buffer":0,
			"byteLength":5196,
			"byteOffset":2382936,
			"target":34962
		},
		{
			"buffer":0,
			"byteLength":5196,
			"byteOffset":2388132,
			"target":34962
		},
		{
			"buffer":0,
			"byteLength":3464,
			"byteOffset":2393328,
			"target":34962
		},
		{
			"buffer":0,
			"byteLength":3216,
			"byteOffset":2396792,
			"target":34963
		}
	],
	"samplers":[
		{
			"magFilter":9729,
			"minFilter":9987
		}
	],
	"buffers":[
		{
			"byteLength":2400008,
			"uri":"untitled.bin"
		}
	]
}
